<?xml version="1.0" standalone="no"?>
<!DOCTYPE svg PUBLIC "-//W3C//DTD SVG 20010904//EN"
 "http://www.w3.org/TR/2001/REC-SVG-20010904/DTD/svg10.dtd">
<svg version="1.0" xmlns="http://www.w3.org/2000/svg"
 width="1284.000000pt" height="1284.000000pt" viewBox="0 0 1284.000000 1284.000000"
 preserveAspectRatio="xMidYMid meet">
<metadata>
Created by potrace 1.11, written by Peter Selinger 2001-2013
</metadata>
<g transform="translate(0.000000,1284.000000) scale(0.100000,-0.100000)"
fill="#000000" stroke="none">
<path d="M6075 12834 c-22 -2 -105 -9 -185 -14 -541 -40 -1168 -179 -1694
-375 -1317 -491 -2429 -1385 -3183 -2560 -565 -882 -898 -1864 -995 -2935 -17
-193 -17 -867 0 -1060 139 -1544 783 -2931 1862 -4010 1079 -1079 2466 -1723
4010 -1862 193 -17 867 -17 1060 0 1544 139 2931 783 4010 1862 1079 1079
1723 2466 1862 4010 17 193 17 867 0 1060 -139 1544 -783 2931 -1862 4010
-1074 1074 -2448 1714 -3990 1860 -112 11 -815 22 -895 14z m2245 -3984 l0
-520 -1360 0 -1360 0 0 -720 0 -720 1280 0 1280 0 0 -485 0 -485 -1280 0
-1280 0 0 -750 0 -750 1360 0 1360 0 0 -520 0 -520 -1990 0 -1990 0 0 2995 0
2995 1990 0 1990 0 0 -520z"/>
</g>
</svg>
